<mxfile host="app.diagrams.net" agent="Mozilla/5.0 (Windows NT 10.0; Win64; x64) AppleWebKit/537.36 (KHTML, like Gecko) Chrome/127.0.0.0 Safari/537.36" version="24.7.6">
  <diagram name="Página-1" id="OJTeYPlk8KDo_guTqc5x">
    <mxGraphModel dx="1105" dy="586" grid="1" gridSize="10" guides="1" tooltips="1" connect="1" arrows="1" fold="1" page="1" pageScale="1" pageWidth="827" pageHeight="1169" math="0" shadow="0">
      <root>
        <mxCell id="0" />
        <mxCell id="1" parent="0" />
        <mxCell id="5iXJhyNyfYRvLw2FLJ_Q-1" value="ELICITACIÓN" style="rounded=0;whiteSpace=wrap;html=1;" vertex="1" parent="1">
          <mxGeometry x="430" y="70" width="120" height="40" as="geometry" />
        </mxCell>
        <mxCell id="5iXJhyNyfYRvLw2FLJ_Q-6" style="rounded=0;orthogonalLoop=1;jettySize=auto;html=1;exitX=0.5;exitY=1;exitDx=0;exitDy=0;endArrow=none;endFill=0;entryX=0.5;entryY=0;entryDx=0;entryDy=0;" edge="1" parent="1" source="5iXJhyNyfYRvLw2FLJ_Q-2" target="5iXJhyNyfYRvLw2FLJ_Q-7">
          <mxGeometry relative="1" as="geometry">
            <mxPoint x="270" y="280" as="targetPoint" />
          </mxGeometry>
        </mxCell>
        <mxCell id="5iXJhyNyfYRvLw2FLJ_Q-38" style="rounded=0;orthogonalLoop=1;jettySize=auto;html=1;exitX=0.5;exitY=0;exitDx=0;exitDy=0;entryX=0.5;entryY=1;entryDx=0;entryDy=0;endArrow=none;endFill=0;" edge="1" parent="1" source="5iXJhyNyfYRvLw2FLJ_Q-2" target="5iXJhyNyfYRvLw2FLJ_Q-1">
          <mxGeometry relative="1" as="geometry" />
        </mxCell>
        <mxCell id="5iXJhyNyfYRvLw2FLJ_Q-2" value="CLIENTES" style="rounded=0;whiteSpace=wrap;html=1;" vertex="1" parent="1">
          <mxGeometry x="210" y="190" width="120" height="30" as="geometry" />
        </mxCell>
        <mxCell id="5iXJhyNyfYRvLw2FLJ_Q-25" style="edgeStyle=orthogonalEdgeStyle;rounded=0;orthogonalLoop=1;jettySize=auto;html=1;exitX=0.5;exitY=1;exitDx=0;exitDy=0;entryX=0.5;entryY=0;entryDx=0;entryDy=0;endArrow=none;endFill=0;" edge="1" parent="1" source="5iXJhyNyfYRvLw2FLJ_Q-3" target="5iXJhyNyfYRvLw2FLJ_Q-8">
          <mxGeometry relative="1" as="geometry" />
        </mxCell>
        <mxCell id="5iXJhyNyfYRvLw2FLJ_Q-39" style="rounded=0;orthogonalLoop=1;jettySize=auto;html=1;exitX=0.5;exitY=0;exitDx=0;exitDy=0;endArrow=none;endFill=0;" edge="1" parent="1" source="5iXJhyNyfYRvLw2FLJ_Q-3">
          <mxGeometry relative="1" as="geometry">
            <mxPoint x="490" y="110" as="targetPoint" />
          </mxGeometry>
        </mxCell>
        <mxCell id="5iXJhyNyfYRvLw2FLJ_Q-3" value="GERENTE" style="rounded=0;whiteSpace=wrap;html=1;" vertex="1" parent="1">
          <mxGeometry x="360" y="190" width="120" height="30" as="geometry" />
        </mxCell>
        <mxCell id="5iXJhyNyfYRvLw2FLJ_Q-40" style="rounded=0;orthogonalLoop=1;jettySize=auto;html=1;exitX=0.5;exitY=0;exitDx=0;exitDy=0;endArrow=none;endFill=0;entryX=0.5;entryY=1;entryDx=0;entryDy=0;" edge="1" parent="1" source="5iXJhyNyfYRvLw2FLJ_Q-4" target="5iXJhyNyfYRvLw2FLJ_Q-1">
          <mxGeometry relative="1" as="geometry" />
        </mxCell>
        <mxCell id="5iXJhyNyfYRvLw2FLJ_Q-4" value="ENCARGADO DE COMPRAS" style="rounded=0;whiteSpace=wrap;html=1;" vertex="1" parent="1">
          <mxGeometry x="510" y="190" width="120" height="30" as="geometry" />
        </mxCell>
        <mxCell id="5iXJhyNyfYRvLw2FLJ_Q-41" style="rounded=0;orthogonalLoop=1;jettySize=auto;html=1;exitX=0.5;exitY=0;exitDx=0;exitDy=0;endArrow=none;endFill=0;entryX=0.5;entryY=1;entryDx=0;entryDy=0;" edge="1" parent="1" source="5iXJhyNyfYRvLw2FLJ_Q-5" target="5iXJhyNyfYRvLw2FLJ_Q-1">
          <mxGeometry relative="1" as="geometry">
            <mxPoint x="490" y="100" as="targetPoint" />
          </mxGeometry>
        </mxCell>
        <mxCell id="5iXJhyNyfYRvLw2FLJ_Q-5" value="EMPLEADOS" style="rounded=0;whiteSpace=wrap;html=1;" vertex="1" parent="1">
          <mxGeometry x="660" y="190" width="120" height="30" as="geometry" />
        </mxCell>
        <mxCell id="5iXJhyNyfYRvLw2FLJ_Q-22" style="edgeStyle=orthogonalEdgeStyle;rounded=0;orthogonalLoop=1;jettySize=auto;html=1;exitX=0.5;exitY=1;exitDx=0;exitDy=0;endArrow=classic;endFill=1;" edge="1" parent="1" source="5iXJhyNyfYRvLw2FLJ_Q-7">
          <mxGeometry relative="1" as="geometry">
            <mxPoint x="270" y="345" as="targetPoint" />
          </mxGeometry>
        </mxCell>
        <mxCell id="5iXJhyNyfYRvLw2FLJ_Q-7" value="ENCUESTA" style="rounded=0;whiteSpace=wrap;html=1;" vertex="1" parent="1">
          <mxGeometry x="210" y="290" width="120" height="30" as="geometry" />
        </mxCell>
        <mxCell id="5iXJhyNyfYRvLw2FLJ_Q-8" value="ENTREVISTA" style="rounded=0;whiteSpace=wrap;html=1;" vertex="1" parent="1">
          <mxGeometry x="360" y="290" width="120" height="30" as="geometry" />
        </mxCell>
        <mxCell id="5iXJhyNyfYRvLw2FLJ_Q-24" value="&lt;h1 style=&quot;margin-top: 0px;&quot;&gt;&lt;font style=&quot;font-size: 14px;&quot;&gt;Objetivo&lt;/font&gt;&lt;/h1&gt;&lt;p&gt;Buscamos obtener opiniones de la experiencia de compra.&lt;/p&gt;" style="text;html=1;whiteSpace=wrap;overflow=hidden;rounded=0;" vertex="1" parent="1">
          <mxGeometry x="210" y="340" width="130" height="120" as="geometry" />
        </mxCell>
        <mxCell id="5iXJhyNyfYRvLw2FLJ_Q-27" value="&lt;h1 style=&quot;margin-top: 0px;&quot;&gt;&lt;font style=&quot;font-size: 14px;&quot;&gt;Objetivo&lt;/font&gt;&lt;/h1&gt;&lt;p&gt;Obtener informacion sobre como definir la estrategia.&lt;/p&gt;" style="text;html=1;whiteSpace=wrap;overflow=hidden;rounded=0;" vertex="1" parent="1">
          <mxGeometry x="370" y="340" width="130" height="120" as="geometry" />
        </mxCell>
        <mxCell id="5iXJhyNyfYRvLw2FLJ_Q-28" style="edgeStyle=orthogonalEdgeStyle;rounded=0;orthogonalLoop=1;jettySize=auto;html=1;entryX=0.5;entryY=0;entryDx=0;entryDy=0;endArrow=none;endFill=0;" edge="1" parent="1" source="5iXJhyNyfYRvLw2FLJ_Q-4" target="5iXJhyNyfYRvLw2FLJ_Q-29">
          <mxGeometry relative="1" as="geometry">
            <mxPoint x="569.67" y="220" as="sourcePoint" />
            <mxPoint x="569.67" y="290" as="targetPoint" />
          </mxGeometry>
        </mxCell>
        <mxCell id="5iXJhyNyfYRvLw2FLJ_Q-29" value="ENTREVISTA" style="rounded=0;whiteSpace=wrap;html=1;" vertex="1" parent="1">
          <mxGeometry x="510" y="290" width="120" height="30" as="geometry" />
        </mxCell>
        <mxCell id="5iXJhyNyfYRvLw2FLJ_Q-30" style="edgeStyle=orthogonalEdgeStyle;rounded=0;orthogonalLoop=1;jettySize=auto;html=1;endArrow=classic;endFill=1;" edge="1" parent="1" source="5iXJhyNyfYRvLw2FLJ_Q-8">
          <mxGeometry relative="1" as="geometry">
            <mxPoint x="419.66999999999996" y="345" as="targetPoint" />
            <mxPoint x="420" y="320" as="sourcePoint" />
          </mxGeometry>
        </mxCell>
        <mxCell id="5iXJhyNyfYRvLw2FLJ_Q-31" style="edgeStyle=orthogonalEdgeStyle;rounded=0;orthogonalLoop=1;jettySize=auto;html=1;endArrow=classic;endFill=1;" edge="1" parent="1" source="5iXJhyNyfYRvLw2FLJ_Q-29">
          <mxGeometry relative="1" as="geometry">
            <mxPoint x="570" y="345" as="targetPoint" />
            <mxPoint x="570" y="320" as="sourcePoint" />
          </mxGeometry>
        </mxCell>
        <mxCell id="5iXJhyNyfYRvLw2FLJ_Q-32" value="&lt;h1 style=&quot;margin-top: 0px;&quot;&gt;&lt;font style=&quot;font-size: 14px;&quot;&gt;Objetivo&lt;/font&gt;&lt;/h1&gt;&lt;p&gt;Obtener informacion sobre el proceso de compras&lt;/p&gt;" style="text;html=1;whiteSpace=wrap;overflow=hidden;rounded=0;" vertex="1" parent="1">
          <mxGeometry x="520" y="340" width="130" height="120" as="geometry" />
        </mxCell>
        <mxCell id="5iXJhyNyfYRvLw2FLJ_Q-33" value="ENTREVISTA" style="rounded=0;whiteSpace=wrap;html=1;" vertex="1" parent="1">
          <mxGeometry x="660" y="290" width="120" height="30" as="geometry" />
        </mxCell>
        <mxCell id="5iXJhyNyfYRvLw2FLJ_Q-34" style="edgeStyle=orthogonalEdgeStyle;rounded=0;orthogonalLoop=1;jettySize=auto;html=1;endArrow=none;endFill=0;" edge="1" parent="1" source="5iXJhyNyfYRvLw2FLJ_Q-5" target="5iXJhyNyfYRvLw2FLJ_Q-33">
          <mxGeometry relative="1" as="geometry">
            <mxPoint x="719.67" y="220" as="sourcePoint" />
            <mxPoint x="719.67" y="290" as="targetPoint" />
          </mxGeometry>
        </mxCell>
        <mxCell id="5iXJhyNyfYRvLw2FLJ_Q-35" style="edgeStyle=orthogonalEdgeStyle;rounded=0;orthogonalLoop=1;jettySize=auto;html=1;endArrow=classic;endFill=1;" edge="1" parent="1" source="5iXJhyNyfYRvLw2FLJ_Q-33">
          <mxGeometry relative="1" as="geometry">
            <mxPoint x="719.67" y="345" as="targetPoint" />
            <mxPoint x="719.67" y="320" as="sourcePoint" />
          </mxGeometry>
        </mxCell>
        <mxCell id="5iXJhyNyfYRvLw2FLJ_Q-37" value="&lt;h1 style=&quot;margin-top: 0px;&quot;&gt;&lt;font style=&quot;font-size: 14px;&quot;&gt;Objetivo&lt;/font&gt;&lt;/h1&gt;&lt;p&gt;Obtener informacion sobre el proceso de preparacion de pedidos&lt;/p&gt;" style="text;html=1;whiteSpace=wrap;overflow=hidden;rounded=0;" vertex="1" parent="1">
          <mxGeometry x="670" y="340" width="130" height="120" as="geometry" />
        </mxCell>
      </root>
    </mxGraphModel>
  </diagram>
</mxfile>
